<svg id="Actions_Toggle_light--filled_16" data-name="Actions / Toggle / light--filled / 16" xmlns="http://www.w3.org/2000/svg" width="24" height="24" viewBox="0 0 24 24">
  <path id="Fill" d="M11.25,21H9.75V17.28h1.5V21ZM3.609,18.463h0L2.547,17.4l2.631-2.63,1.06,1.06L3.61,18.462ZM17.4,18.457h0L14.77,15.827l1.06-1.06,2.63,2.63L17.4,18.456ZM10.5,15A4.5,4.5,0,1,1,15,10.5,4.505,4.505,0,0,1,10.5,15ZM21,11.25H17.28V9.75H21v1.5Zm-17.28,0H0V9.75H3.721v1.5ZM5.173,6.233h0L2.542,3.6,3.6,2.542l2.631,2.63-1.06,1.06Zm10.653,0h0l-1.06-1.06L17.4,2.538,18.456,3.6,15.827,6.228ZM11.25,3.721H9.75V0h1.5V3.719Z" transform="translate(1.5 1.5)" fill="rgba(22,22,22,0.75)"/>
</svg>
