<svg xmlns="http://www.w3.org/2000/svg" width="223.799" height="100" viewBox="0 0 223.799 100">
  <path id="Building_Image" d="M224.578,100.554v-.242l.765.193v.05Zm-1.622,0-.036-.011v-.693l.765.231v.473Zm-3.351,0v-.2l.765.193v.011Zm-1.658,0v-.665l.765.193v.473Zm-3.315,0v-.165l.657.165Zm-1.657,0v-.626l.765.192v.435Zm-4.675,0v-.589l1.021.231v.357Zm-11,0-26.183-9.861v-.962l27.072,10.158v.665Zm-5.541,0-20.642-7.745v-1l23.22,8.745Zm-5.538,0-15.1-5.667v-1l17.7,6.668Zm-5.572,0-9.531-3.59v-1l12.186,4.59Zm-5.517,0-4.014-1.512v-1l6.669,2.512Zm-4.014,0v-.435l1.154.435Zm-3.188,0v-.2l.824.2Zm-2.55,0v-.78l1.445.308v.473Zm-7.564,0v-.319l1.289.319Zm-2.55,0v-.9l1.445.346v.55Zm-2.806,0v-.511l1.105.308v.2Zm-1.946,0-.519-.127V99.389l1.105.308v.858Zm-5.449,0v-.473l1.105.308v.165Zm-2.136,0-.329-.088V99.428l1.147.308v.819Zm-5.3,0v-.7l1.105.308v.4Zm-4.845,0V99.543l1.105.308v.7Zm-3.782,0V13.505l.85.5v86.549Zm-21.335,0V3.886l.85-.308v96.976Zm-1.7,0V4.463l.85-.269v96.36Zm-1.742,0V5.079l.893-.308v95.5l-.812.28Zm-3.442,0V6.311L101.671,6v94.551Zm-1.7,0V6.926l.851-.308v93.936Zm-1.742,0V7.542l.893-.308v93.32Zm-3.442,0V8.773l.893-.308v92.089Zm-1.7,0V9.389l.85-.308v91.473Zm-1.7,0V10l.85-.308v90.858Zm-1.743,0V10.62l.851-.308v90.242Zm-1.7,0V11.236l.85-.308v89.627Zm-1.742,0v-88.7l.85-.308v89.011Zm-1.7,0V12.467l.85-.308v88.4Zm-1.742,0V13.082l.85-.308v87.78Zm-1.7,0V29.32l-2.253-1V27.242l2.253,1.078V13.7l.85-.308v87.164Zm-16.4,0v-.2l1.317-.384v.588Zm-5.7,0V99.7l1.318-.346v1.2Zm-2.89,0v-.05l1.318-.384v.434Zm-7.352,0v-.9l1.19-.308v1.116l-.341.088Zm-2.167,0v-.7l1.232-.269v.973Zm-2.083,0v-.281l1.19-.308v.589Zm-4.378,0v-.743l1.233-.308v1.05Zm-7.319,0,4.089-1.4v.77l-1.835.626Zm-4.664,0,8.753-2.974v.731L29.4,100.554Zm-4.691,0,13.444-4.59v.77l-11.246,3.821Zm-4.732,0,18.176-6.206v.77l-15.922,5.436Zm-4.734,0,22.91-7.783V93.5l-20.657,7.052Zm-4.459,0v-.742l.977-.231v.886l-.37.087Zm-1.786,0v-.319l1.021-.23v.549Zm-1.461,0,.7-.165v.165Zm-3.809,0v-.665l1.02-.23v.885l-.048.011Zm203.315-.281v-.885l.977.23v.886ZM41.366,99.311,42.6,99v1.116l-1.232.308Zm169.952.886V99.5l.765.193v.693Zm4.973-.039v-.692l.765.192v.693ZM3.328,99.466l.977-.23v.885l-.977.23Zm217.935.653v-.692l.765.193v.692ZM10.341,99.39l1.02-.231v.885l-1.02.231Zm149.979.461V98.543l1.445.346V100.2ZM61,98.927l1.318-.346v1.231L61,100.158Zm79.133.885V98.773l1.147.308v1.039Zm-87.887-.961L53.6,98.5v1.231l-1.36.346Zm149.341.961v-.885l.977.23v.886Zm-54.059-.076v-1l1.1.27v1.039ZM5.071,99.043l.977-.231V99.7l-.977.23Zm209.562.653V99l.765.192v.693ZM43.575,98.773l1.19-.269v1.115l-1.19.27Zm181,.847v-.693l.765.193v.731ZM75.534,98.543l1.36-.385v1.231l-1.36.347ZM12.975,99l22.992-7.85v.77L12.975,99.735Zm154.951.347v-1.27l1.4.308V99.7Zm-10.114-.077V97.965l1.4.346v1.27Zm55.164,0v-.731l.765.23v.693ZM37.031,98.35l1.232-.27V99.2l-1.232.269Zm180.917.885v-.692l.765.192v.693Zm-80.238-.076V98.119l1.1.308v1Zm85.21.038V98.5l.765.193v.692ZM63.889,98.158l1.318-.346V99l-1.318.384Zm-18.147.115,1.19-.308v1.116l-1.19.308Zm9.435-.192,1.318-.346v1.231l-1.318.346Zm-53.634.193,1.02-.231v.923l-1.02.231ZM8.6,98.2l.977-.23v.923l-.977.23Zm156.778.577V97.465l1.445.346v1.27Zm45.941.039v-.693l.765.193V99Zm4.973-.039V98.08l.765.193v.693Zm-7.778-.039V97.85l.978.23v.886ZM39.2,97.85l1.233-.308v1.116l-1.233.308Zm182.065.885v-.692l.765.193v.692ZM47.911,97.772l1.232-.308v1.116l-1.232.308Zm123.2-9.158v-.962l27.072,10.158v1ZM142.6,98.427V97.388l1.147.308v1.039ZM10.341,97.812l1.02-.231v.885l-1.02.231Zm196.43.653v-.885l1.021.23V98.7Zm-56.779-.077V97.349l1.105.308V98.7Zm-83.17-1.039L68.139,97v1.231l-1.318.346Zm147.812,1v-.732l.765.231v.693ZM102.521,5.7l.85-.309V98.235l-.85.308ZM58.067,97.312l1.318-.346v1.192l-1.318.385Zm161.538,1v-.731l.765.23V98.5Zm-56.736-.154V96.85l1.4.346V98.5Zm-121.5-.808,1.232-.308v1.116l-1.232.269ZM95.636,8.158l.851-.308V98.042l-.851.308ZM5.071,97.465l.977-.231v.886l-.977.23Zm7.9-.077,22.992-7.849v.77L12.975,98.158Zm119.8.423V96.772l1.105.308v1.039Zm-57.288-.923,1.317-.347v1.232l-1.317.346Zm64.64.885V96.734l1.147.308V98.08Zm77.816.077v-.693l.765.193v.693Zm-16.192-.039v-.885l.977.23v.885Zm21.164,0v-.692l.765.192V98Zm-75.393-.076V96.7l1.1.27V98ZM6.813,97.043l1.021-.231V97.7l-1.021.231Zm36.762-.232,1.19-.269v1.116l-1.19.269Zm116.744.77V96.272l1.445.346v1.27Zm-90.607-1,1.317-.346v1.232l-1.317.346Zm141.606.847v-.693l.765.193v.731Zm4.973-.039V96.7l.765.231v.692Zm4.972-.039v-.692l.765.23v.693ZM8.6,96.619l.977-.23v.885L8.6,97.5Zm28.432-.231,1.232-.269v1.116l-1.232.269Zm100.679.732V96.08l1.1.308v1.04Zm30.217-.039V95.772l1.4.346v1.27Zm-22.865-.039v-1l1.105.269v1.039Zm12.75-.076V95.657l1.4.347v1.309ZM152.456,97V95.964l1.105.308v1.039Zm56.184-.038V96.08l1.02.231V97.2ZM3.328,96.272l.977-.23v.885l-.977.231Zm211.3.693v-.693l.765.193v.692ZM10.341,96.2l1.02-.23v.923l-1.02.23Zm214.237.692V96.2l.765.192v.693ZM63.889,95.734l1.318-.346v1.231l-1.318.347ZM206.9,96.7V95.81l.977.23v.923ZM55.177,95.657l1.318-.346v1.231l-1.318.347Zm-7.267.154,1.232-.308v1.116l-1.232.269Zm117.466.654V95.156l1.445.346v1.309ZM5.071,95.849l.977-.23v.923l-.977.23Zm207.905.653V95.81l.765.193v.731Zm-41.862-9.966v-.962l27.072,10.158v1Zm-35.87,9.928V95.425l1.105.309v1Zm20.018-.115V95.08l1.445.346V96.7Zm62.685.115v-.693l.765.193V96.7ZM142.6,96.387V95.349l1.147.308V96.7Zm80.323.039v-.693l.765.231v.693Zm-17.849,0V95.5l1.02.269v.886Zm-55.08-.076V95.31l1.105.308v1.039ZM12.975,95.773l22.992-7.811v.731l-22.992,7.85Zm28.391-.424,1.232-.27v1.116l-1.232.27Zm-34.553.077,1.021-.231v.924l-1.021.23Zm204.505.653v-.692l.765.192v.693Zm4.973-.039v-.692l.765.193v.692ZM75.534,95l1.318-.346v1.231l-1.318.346Zm87.335.886V94.579l1.4.347V96.2Zm-96.048-.923,1.318-.346V95.81l-1.318.385ZM221.263,96V95.31l.765.193v.692Zm-163.2-1.116,1.318-.346v1.231l-1.318.346Zm74.713.885v-1l1.105.269V96.08Zm7.352-.039V94.694l1.147.308v1.039Zm61.624.039v-.923l.977.231V96ZM1.544,95.08l1.02-.23v.923L1.544,96Zm145.984.616v-1.04l1.1.308v1ZM43.575,94.848l1.19-.269v1.077l-1.19.308ZM8.6,95.041l.977-.23V95.7l-.977.231Zm206.034.538v-.692l.765.193v.692Zm9.945-.076V94.81l.765.193v.732Zm-4.973.039v-.693l.765.193v.692ZM3.328,94.7l.977-.231v.885l-.977.231Zm196.643.615v-.885l.977.23v.923ZM37.031,94.425l1.232-.27v1.078l-1.232.308Zm-26.69.193,1.02-.23v.885l-1.02.23Zm35.4-.27,1.19-.308v1.116l-1.19.308Zm161.284.847V94.31l1.02.23v.885ZM137.71,95.08V94.04l1.1.308v1.04Zm-68-.923,1.317-.347v1.231l-1.317.347Zm143.264,1v-.731l.765.23v.693ZM61,94.118l1.318-.346v1.193L61,95.349Zm156.948,1v-.692l.765.193v.692ZM145.062,95V94l1.105.269V95.31Zm77.858.077v-.693l.765.193v.693ZM52.245,94.04l1.36-.346v1.231l-1.36.346Zm100.211.923V93.925l1.105.308v1.039ZM5.071,94.271l.977-.23v.885l-.977.231Zm162.856.5V93.5l1.4.308v1.309ZM39.2,93.925l1.233-.308v1.116l-1.233.308Zm166.086.847v-.886l.977.231V95Zm-47.471-.115v-1.27l1.4.346V95ZM12.975,94.195l22.992-7.85v.77L12.975,94.926Zm34.935-.385,1.232-.27v1.116l-1.232.269Zm163.408.885V94l.765.192v.693Zm4.973-.039v-.692l.765.193v.692Zm4.972-.038v-.693l.765.193v.692Zm-214.45-.77,1.021-.23V94.5l-1.021.23Zm128.432.577V93.387l1.105.308v1Zm35.87-9.966v-1l27.072,10.2v1ZM142.6,94.348V93.309l1.147.308v1.039Zm-69.953-.961,1.318-.347v1.231l-1.318.347Zm130.854.961v-.885l1.021.23v.886ZM63.889,93.309l1.318-.347v1.231l-1.318.347Zm-8.712-.039,1.318-.346v1.192l-1.318.385Zm-13.811.115,1.232-.269v1.116l-1.232.269Zm113.9.693V92.771l1.445.346v1.309Zm64.343.115v-.731l.765.231v.692Zm4.973-.038v-.732l.765.231v.692ZM208.811,94v-.885l.977.231v.923Zm-7.055-.038V93.04l.977.23v.923Zm-68.976-.193V92.732l1.105.269V94.04Zm7.352-.076v-1.04l1.147.308V94Zm72.844.076v-.692l.765.192v.693Zm-65.449-.115V92.617l1.1.308v1.039ZM10.341,93l1.02-.231v.923l-1.02.231Zm207.607.73V93.04l.765.193v.692Zm-55.078-.153V92.271l1.4.347v1.308Zm60.051.115V93l.765.193v.692ZM75.534,92.617l1.318-.347v1.193l-1.318.385Zm131.492,1v-.923l1.02.23v.923Zm-7.013-.077v-.923l.977.231v.923Zm-133.192-1,1.318-.346v1.231l-1.318.347Zm-8.754-.076,1.318-.346v1.231l-1.318.347Zm-53,.193.977-.231v.923l-.977.231Zm31.96-.193,1.232-.308v1.116l-1.232.308Zm174.288.847v-.693l.765.193v.732Zm4.973-.039v-.692l.765.23V93.5ZM45.743,92.386l1.19-.308v1.116l-1.19.308Zm175.521.847V92.54l.765.231v.692Zm-15.979-.039v-.923l.977.269v.885ZM137.71,93.04V92l1.1.308v1.039ZM12.975,92.578l22.992-7.85v.77l-22.992,7.85ZM160.32,93V91.694l1.445.346v1.27Zm-15.258,0V91.963l1.105.269v1.039Zm7.394-.076V91.886l1.105.308v1.039ZM6.813,92.271l1.021-.23v.885l-1.021.231ZM39.2,91.962l1.233-.308V92.77l-1.233.308Zm175.435.886v-.693l.765.193v.693Zm4.973-.039v-.692l.765.192V93ZM203.5,92.77v-.885l1.021.23V93Zm-133.786-1,1.317-.346v1.193L69.712,93Zm154.866,1v-.693l.765.193v.692ZM47.911,91.847l1.232-.269v1.116l-1.232.269ZM61,91.694l1.318-.346v1.231L61,92.925Zm-8.754-.077,1.36-.346V92.5l-1.36.347Zm-50.7.308,1.02-.23v.885l-1.02.231Zm156.269.462V91.077l1.4.347v1.309ZM8.6,91.848l.977-.231V92.5l-.977.23Zm200.212.577v-.886l.977.231v.885ZM142.6,92.309v-1l1.147.269v1.039Zm75.351.039v-.692l.765.192v.732Zm-4.972.039v-.693l.765.193v.693Zm-41.862-10v-1l27.072,10.2v1Zm-21.123,9.889V91.231l1.105.308v1.039Zm72.929.038v-.692l.765.193v.731ZM41.366,91.424l1.232-.269V92.27l-1.232.27ZM3.328,91.5l.977-.23v.885l-.977.231Zm7.013-.076,1.02-.231v.885l-1.02.231Zm155.036.461V90.578l1.445.346v1.308ZM72.644,91l1.318-.385v1.232l-1.318.346Zm-8.755-.076,1.318-.346V91.77l-1.318.385Zm147.429,1.039V91.27l.765.193v.692Zm-11.3-.039v-.886l.977.231v.885Zm16.277,0v-.693l.765.193v.693Zm-61.028-.154V90.5l1.445.346v1.27Zm66,.115v-.692l.765.192v.693ZM43.575,90.923l1.19-.308v1.116l-1.19.308Zm89.2.808V90.693l1.105.308v1ZM5.071,91.078l.977-.231v.886l-.977.23Zm142.456.538V90.578l1.1.308v1.039Zm57.757-.039v-.885l.977.23v.886ZM12.975,90.962l22.992-7.81v.731l-22.992,7.85Zm201.658.5V90.77l.765.193v.693Zm9.945-.077v-.692l.765.193v.731Zm-61.709-.076V90l1.4.347v1.27ZM6.813,90.655l1.021-.231v.923l-1.021.231Zm38.93-.232,1.19-.308v1.116l-1.19.308Zm157.756.77v-.923l1.021.231v.923Zm-127.964-1,1.318-.347v1.232l-1.318.346Zm-8.713-.039,1.318-.384V91l-1.318.347ZM137.71,91V89.961l1.1.309v1.039Zm-79.643-.923,1.318-.346v1.192l-1.318.385Zm-56.524.231,1.02-.231V91l-1.02.231Zm211.432.731v-.732l.765.231v.692Zm-67.914-.077V89.924l1.105.308v1ZM217.948,91V90.27l.765.23v.693Zm-65.491-.115v-1.04l1.105.308v1.04Zm56.354-.039v-.923l.977.23v.923ZM39.2,90l1.233-.308v1.116l-1.233.269Zm121.122.693V89.384l1.445.347V91.04Zm41.436.076v-.923l.977.231V91ZM47.911,89.885l1.232-.27v1.116L47.911,91Zm-44.582,0,.977-.23v.923l-.977.231Zm212.963.654v-.693l.765.193v.693Zm-205.95-.692,1.02-.231V90.5l-1.02.231Zm210.922.653v-.693l.765.193v.693Zm-14.237-.077V89.5l1.02.27v.885Zm-71.781-.076V89.308l1.105.308v1.039Zm7.352-.076v-1l1.147.269v1.04Zm-72.885-.923L71.029,89v1.231l-1.317.347Zm130.3,1v-.885l.977.23v.885ZM41.366,89.461l1.232-.269v1.116l-1.232.269Zm126.561.732V88.885l1.4.346v1.309Zm-17.935.039V89.192l1.105.308v1.039ZM61,89.269l1.318-.347v1.231L61,90.5ZM171.114,80.3v-1l27.072,10.2v.962ZM52.245,89.23l1.36-.346v1.192l-1.36.384Zm105.567.847v-1.27l1.4.346v1.27Zm56.821,0v-.693l.765.231v.692Zm4.973,0v-.732l.765.231v.693Zm4.973-.039v-.731l.765.23v.693ZM205.284,90v-.885l.977.23v.886ZM12.975,89.385l22.992-7.85v.77L12.975,90.116Zm30.6-.424,1.19-.308v1.115l-1.19.308Zm89.2.731V88.654l1.105.308V90ZM6.813,89.077l1.021-.231v.885l-1.021.231Zm158.564.538V88.307l1.445.347v1.27Zm-25.245,0V88.576l1.147.308v1.039Zm7.4-.039V88.538l1.1.308v1.039Zm65.449.076v-.692l.765.193v.692ZM155.263,89.5V88.192l1.445.346v1.308Zm67.658.076v-.693l.765.193v.693ZM63.889,88.5l1.318-.346v1.231l-1.318.347Zm-8.712-.039,1.318-.384v1.231l-1.318.347Zm-18.147.076,1.232-.308v1.116l-1.232.308Zm-35.487.194,1.02-.231v.886l-1.02.23ZM8.6,88.654l.977-.23v.885l-.977.231Zm37.144-.193,1.19-.308v1.116l-1.19.269Zm163.068.77v-.885l.977.23v.886Zm2.507-.039V88.5l.765.193v.731Zm4.973-.038v-.693l.765.231v.692Zm-14.535,0v-.885l.977.231v.885ZM162.869,89V87.692l1.4.346v1.309Zm58.394.115v-.693l.765.231v.692Zm-83.553-.154V87.923l1.1.308v1.039Zm7.352-.039V87.884l1.105.308V89.23ZM3.328,88.308l.977-.231v.885l-.977.231Zm7.013-.077,1.02-.23v.923l-1.02.23ZM39.2,88l1.233-.269v1.115l-1.233.27Zm167.828.808v-.886l1.02.231v.923ZM47.911,87.922l1.232-.269v1.116l-1.232.269Zm152.1.847v-.923l.977.23V89ZM75.534,87.808l1.318-.385v1.231L75.534,89Zm139.1.923v-.692l.765.193v.692ZM58.067,87.653l1.318-.346v1.231l-1.318.347Zm161.538,1.039V88l.765.193v.692Zm4.973-.039v-.693l.765.193v.693ZM5.071,87.884l.977-.23v.923l-.977.23Zm155.249.5v-1.27l1.445.347v1.27Zm44.964.038V87.5l.977.231v.923Zm-70.039-.115V87.269l1.105.308v1.039ZM41.366,87.5,42.6,87.23v1.077l-1.232.308Zm101.231.77V87.23l1.147.308v1Zm-129.622-.5,22.992-7.85v.769l-22.992,7.85Zm137.016.423V87.152l1.105.308V88.5Zm67.956.039v-.693l.765.193v.731Zm-4.972.038v-.692l.765.193v.692Zm9.944-.076V87.5l.765.193v.731ZM6.813,87.461l1.021-.231v.924l-1.021.23Zm164.3-9.235v-1l27.072,10.2v.961ZM203.5,88v-.923l1.021.23v.923ZM69.712,86.961l1.317-.385v1.231l-1.317.347ZM61,86.883l1.318-.346V87.73L61,88.115Zm150.319.962v-.693l.765.193v.693ZM52.245,86.807l1.36-.346v1.231l-1.36.346Zm164.046,1v-.692l.765.193V88ZM8.6,87.076l.977-.23v.885l-.977.231Zm212.665.693v-.693l.765.193v.692Zm-88.483-.116V86.614l1.105.308v1.039Zm7.352-.076v-1l1.147.269v1.039Zm61.624,0v-.886l.977.231v.885Zm-164.725-1,1.232-.308v1.116l-1.232.308Zm-33.7.155.977-.231v.885l-.977.231Zm42.414-.27,1.19-.27v1.116l-1.19.27Zm168.89.885v-.692l.765.192v.693Zm-59.37-.154V85.922l1.445.346v1.27Zm64.343.116v-.693l.765.193V87.5Zm-12.579-.077v-.885l1.02.23v.885Zm-7.013-.077v-.885l.977.231v.885Zm-127.369-1,1.318-.347v1.231l-1.318.347Zm-8.755-.039,1.318-.384v1.231l-1.318.347Zm-8.712-.076,1.318-.346v1.192l-1.318.385Zm82.533.885V85.883l1.1.308V87.23ZM5.071,86.306l.977-.23v.885l-.977.231Zm139.991.577V85.845l1.105.308v1.039ZM39.2,86.036l1.233-.269v1.116l-1.233.269Zm173.778.886v-.731l.765.23v.693Zm-60.52-.115v-1l1.105.269v1.039Zm65.491.076v-.731l.765.23v.693ZM47.911,85.96l1.232-.269v1.077l-1.232.308Zm175.01.885v-.692l.765.193v.692Zm-17.636-.038v-.886l.977.231v.885Zm-42.414-.077V85.422l1.4.347v1.269ZM12.975,86.153l22.992-7.811v.732L12.975,86.922Zm-6.162-.269,1.021-.23v.885l-1.021.23Zm204.505.577v-.693l.765.193v.693ZM41.366,85.537l1.232-.308v1.115l-1.232.308Zm174.925.885v-.692l.765.192v.693ZM203.5,86.383V85.5l1.021.231v.885Zm-127.964-1,1.318-.347V86.23l-1.318.384Zm145.729,1v-.692l.765.193v.692ZM66.821,85.306l1.318-.346v1.231l-1.318.347Zm75.776.923V85.19l1.147.308v1Zm17.723-.115V84.806l1.445.347V86.46Zm-10.328.039V85.114l1.105.308V86.46Zm-91.924-.885,1.318-.385v1.231l-1.318.347ZM8.6,85.46l.977-.231v.923l-.977.231Zm200.212.576v-.885l.977.231v.923Zm-37.7-9.927v-.962l27.072,10.158v1ZM201.756,86v-.923l.977.23v.923Zm12.877-.039v-.692l.765.23v.693Zm4.973-.039v-.692l.765.23v.693Zm-176.03-.885,1.19-.308v1.116l-1.19.308Zm181,.885V85.19l.765.231v.692ZM10.341,85.036l1.02-.23v.923l-1.02.231Zm157.585.577V84.306l1.4.346V85.96Zm-35.147,0V84.575l1.105.308v1.039Zm74.246.039v-.923l1.02.23v.923ZM157.812,85.5v-1.27l1.4.346v1.27Zm-17.68.077V84.536l1.147.269v1.04Zm59.882,0v-.923l.977.231v.923ZM147.527,85.5V84.46l1.1.308v1.039Zm-77.815-.962,1.317-.346v1.193l-1.317.385Zm143.264,1v-.693l.765.193v.693ZM37.031,84.614l1.232-.309v1.116l-1.232.308Zm180.917.885v-.692l.765.192v.693ZM61,84.46l1.318-.346v1.231L61,85.691Zm161.921,1v-.692l.765.192v.693ZM45.743,84.5l1.19-.269v1.116l-1.19.269Zm159.541.732v-.923l.977.23v.923Zm-39.907-.193V83.729l1.445.346v1.27Zm-152.4-.462,22.992-7.849v.77L12.975,85.307Zm198.343.5v-.693l.765.193v.731Zm4.973-.039v-.692l.765.192v.732Zm-61.028-.115V83.613l1.445.347v1.309Zm66,.076v-.692l.765.23v.693Zm-83.553-.115V83.844l1.1.308V85.19ZM39.2,84.074l1.233-.269v1.116L39.2,85.19Zm105.864.77V83.805l1.105.308v1.039ZM47.911,84l1.232-.308v1.116l-1.232.308Zm104.546.809V83.767l1.105.27v1.039ZM72.644,83.767l1.318-.384v1.231l-1.318.346Zm-8.755-.076,1.318-.346v1.192l-1.318.385Zm-8.712-.077,1.318-.346V84.5l-1.318.346Zm107.692.808V83.113l1.4.346v1.309Zm61.709.115v-.692l.765.192v.693Zm-15.767-.076v-.886l.977.231v.885Zm-7.055-.077V83.5l.977.23v.886Zm-66.511-.154V83.19l1.105.308v1.039Zm7.352-.039V83.151l1.147.308V84.5Zm7.394-.076v-1l1.105.27v1.039Zm62.985.039v-.693l.765.193v.692Zm9.944-.077v-.692l.765.192v.732Zm-4.973.039V83.42l.765.193v.693Zm-10.921-.077v-.885l1.02.23v.886Zm-35.912-10V73.07l27.072,10.158v1Zm-95.58,8.926,1.318-.346v1.231l-1.318.346Zm124.479,1v-.886l.977.231v.885Zm-39.694-.154v-1.27l1.445.347v1.27ZM43.575,83.074l1.19-.308v1.116l-1.19.27Zm23.246-.153,1.318-.385v1.231l-1.318.347Zm144.5.807V83l.765.231v.692Zm4.973-.038V83l.765.193v.692Zm-83.511-.116V82.535l1.105.308v1.039Zm88.483.077v-.693l.765.193v.693Zm-15.979-.039v-.885l.977.23v.886Zm-65.152-.076V82.5l1.147.308v1Zm7.4-.077V82.42l1.1.308v1.039Zm-134.552-.5,22.992-7.85v.77l-22.992,7.85Zm24.055-.309,1.232-.308v1.116l-1.232.269Zm130.9.693V82.035l1.4.346v1.27ZM45.743,82.535l1.19-.269v1.115l-1.19.27Zm157.756.692V82.3l1.021.231v.923Zm11.135,0v-.693l.765.193v.692Zm4.973-.039V82.5l.765.193v.693Zm4.973-.039v-.692l.765.192v.693ZM69.712,82.112l1.317-.347V83l-1.317.347ZM61,82.074l1.318-.384v1.231L61,83.267ZM52.245,82l1.36-.346v1.231l-1.36.346ZM39.2,82.112l1.233-.27v1.116l-1.233.269Zm98.512.731v-1l1.1.27v1.039Zm71.1.039v-.923l.977.23v.923ZM145.062,82.8V81.766l1.105.308v1.039Zm20.315-.076V81.419l1.445.346v1.309Zm36.379.076v-.923l.977.269v.886Zm11.22,0v-.731l.765.231V83Zm-57.713-.192v-1.27l1.445.346v1.27Zm62.685.154v-.732l.765.231v.692ZM41.366,81.612,42.6,81.3v1.115l-1.232.309Zm165.66.846v-.923l1.02.27v.885Zm-7.013-.076V81.5l.977.23v.885Zm11.3-.039v-.692l.765.193v.692Zm4.973-.038v-.693l.765.193V82.5Zm-81.046-.116V81.15l1.105.308V82.5Zm-71.356-.923,1.318-.346v1.231l-1.318.346Zm157.374,1v-.693l.765.193v.693ZM55.177,81.227l1.318-.384v1.231l-1.318.347Zm94.814.847v-1l1.105.27v1.039Zm-106.416-1,1.19-.269V81.92l-1.19.269Zm127.539-9.119v-.962L198.186,81.15v1ZM12.975,81.343l22.992-7.811v.732L12.975,82.112Zm201.658.5V81.15l.765.23v.693Zm9.945-.038v-.732l.765.231V82Zm-64.258-.269V80.227l1.445.347v1.309Zm43.178.076v-.885l1.021.23v.885Zm-70.718-.076V80.5l1.105.308v1.039Zm7.352-.039v-1.04l1.147.308V81.8Zm-64.6-.923,1.318-.385v1.231l-1.318.346Zm-38.5.076,1.232-.269V81.5l-1.232.269Zm110.5.77V80.381l1.1.308v1.039ZM66.821,80.5l1.318-.346v1.231l-1.318.346Zm-21.079.076,1.19-.269v1.116l-1.19.269Zm12.325-.153,1.318-.346V81.3l-1.318.347Zm159.881.962v-.693l.765.193v.692Zm4.973-.039V80.65l.765.193v.692Zm-14.109-.077v-.885l.977.23V81.5Zm-7.055-.076V80.3l.977.231v.885Zm-33.829-.154V79.727l1.4.347v1.309Zm-10.114-.115V79.65l1.4.347v1.269ZM39.2,80.15l1.233-.269v1.077l-1.233.308Zm172.121.808v-.692l.765.192v.732ZM47.911,80.073l1.232-.308V80.88l-1.232.308Zm168.38.847v-.693l.765.193v.731Zm4.972-.039v-.693l.765.231v.692Zm-14.237-.039v-.886l1.02.231v.923Zm-69.316,0V79.8l1.1.269v1.039Zm7.352-.077V79.727l1.105.308v1.039Zm7.394-.038V79.688l1.105.308v1.039Zm-82.744-1,1.317-.384v1.231l-1.317.346ZM61,79.65l1.318-.346v1.231L61,80.881Zm-8.754-.077,1.36-.346v1.232l-1.36.346Zm113.132.885V79.15l1.445.346v1.27ZM41.366,79.649l1.232-.308v1.116l-1.232.308Zm173.267.847V79.8L215.4,80v.693Zm-9.349-.039v-.923l.977.231v.923Zm-50.021-.115V79.034l1.445.346v1.309Zm64.343.115v-.692l.765.193v.692Zm4.973-.038v-.693l.765.193v.692Zm-211.6-.654,22.992-7.849v.769L12.975,80.5Zm122.269.384v-1l1.105.269v1.039Zm7.352-.038V79.072l1.147.308V80.42Zm60.9-.077v-.923l1.021.269v.885Zm9.478,0v-.692l.765.192v.693ZM217.948,80V79.3l.765.193v.692Zm-55.078-.154V78.534l1.4.346v1.308Zm-90.225-.923,1.318-.346V79.8l-1.318.346Zm98.47-9.042v-1l27.072,10.2v1Zm-107.225,9,1.318-.385v1.231l-1.318.347ZM55.177,78.8l1.318-.346v1.231l-1.318.346Zm153.634.885v-.923l.977.269v.886Zm-7.055-.076v-.886l.977.231v.885Zm9.563,0V78.88l.765.231V79.8ZM132.78,79.5V78.457l1.105.308V79.8Zm-95.749-.808,1.232-.269v1.116l-1.232.269Zm179.26.886V78.88l.765.193v.693Zm-76.159-.115v-1.04l1.147.308v1.04Zm81.131.076v-.692l.765.193v.692ZM45.743,78.611l1.19-.269v1.077l-1.19.308Zm101.785.77v-1l1.1.269v1.039Zm12.793-.154V77.957l1.445.346v1.27Zm46.706.039V78.38l1.02.23V79.5Zm-7.013-.077V78.3l.977.231v.885ZM75.534,78.149l1.318-.346v1.231l-1.318.346Zm139.1.962v-.693l.765.193V79.3ZM66.821,78.072l1.318-.347v1.231l-1.318.347Zm152.784,1V78.38l.765.192v.693ZM58.067,78.034l1.318-.384v1.231l-1.318.346Zm-10.156.076,1.232-.308v1.116l-1.232.308Zm157.373.732v-.886l.977.231v.885ZM137.71,78.8V77.765l1.1.308v1Zm7.352-.076V77.687l1.105.308v1.039Zm12.75-.077V77.341l1.4.346V79Zm-5.356.039v-1.04l1.105.308V79ZM12.975,78.15,35.968,70.3v.77l-22.992,7.85Zm200,.5v-.693l.765.231v.692Zm4.972,0v-.731l.765.23v.693ZM41.366,77.687l1.232-.308V78.5l-1.232.308ZM69.712,77.3l1.317-.347v1.231l-1.317.347Zm95.665.846V76.841l1.445.346V78.5ZM61,77.225l1.318-.347v1.232L61,78.457Zm150.319,1v-.693l.765.193v.692Zm4.973-.039v-.693l.765.193v.693ZM142.6,78.072v-1.04l1.147.308v1.04Zm66.214,0v-.886l.977.231v.923Zm-58.82-.039V77l1.105.308v1Zm51.764,0V77.11l.977.23v.923Zm-158.18-.886,1.19-.269v1.116l-1.19.269ZM171.114,67.8v-1l27.072,10.2v1Zm-8.245,9.774V76.263l1.4.346v1.27Zm37.144.038v-.923l.977.231v.923Zm-67.234-.153v-1.04l1.105.308v1.04Zm-87.037-.808,1.19-.308v1.115l-1.19.308Zm94.389.77V76.379l1.147.308v1.039Zm-67.487-.885,1.318-.385v1.231l-1.318.346Zm74.883.846V76.341l1.1.269v1.039Zm-92.35-1,1.318-.346v1.231l-1.318.347Zm157.8.923V76.61l.765.193v.692Zm-7.692-.039v-.923l.977.23v.923ZM39.2,76.225l1.233-.308v1.116l-1.233.308Zm121.122.732V75.648l1.445.346V77.3ZM12.975,76.533l22.992-7.811v.731L12.975,77.3Zm34.935-.385,1.232-.308v1.116l-1.232.308Zm163.408.693v-.693l.765.193v.731Zm-7.82,0v-.885l1.021.231v.885Zm-65.788-.076V75.725l1.1.308v1.039Zm7.352-.076V75.648l1.105.308V77Zm7.394-.039V75.609l1.105.309v1.039Zm-76.922-.923,1.318-.347V76.61l-1.318.346Zm-8.713-.039,1.318-.384v1.231l-1.318.346Zm-8.754-.076,1.318-.346v1.231l-1.318.347Zm-16.7.114,1.232-.308v1.116l-1.232.27Zm116.446.616v-1.27l1.4.347v1.27Zm43.943.076v-.885l.977.23v.886Zm-66.511-.308V75.071l1.105.269v1.039Zm7.352-.076v-1.04l1.147.308v1.039Zm64.429.038v-.885l1.02.23V76.3Zm-57.035-.076V74.956l1.105.308V76.3ZM43.575,75.186l1.19-.269v1.115l-1.19.27Zm156.438.808V75.11l.977.23v.885ZM166.949,75.8V74.494l1.445.346v1.309Zm-11.686-.038V74.455l1.445.347v1.308Zm-85.55-.886,1.317-.347v1.232l-1.317.346ZM61,74.84l1.318-.384v1.231L61,76.033Zm-8.754-.076,1.36-.346v1.231l-1.36.346Zm153.039.885v-.885l.977.23v.923Zm-34.169-9.927v-1l27.072,10.2v.962ZM37.031,74.763l1.232-.27v1.116l-1.232.269Zm8.712-.077,1.19-.308v1.116l-1.19.308Zm87.037.732v-1l1.105.269v1.04Zm7.352-.039V74.34l1.147.308v1.039ZM12.975,74.956l22.992-7.85v.77L12.975,75.686Zm134.552.384V74.3l1.1.308v1Zm55.971-.076v-.924l1.021.231v.923Zm-40.713-.154V73.84l1.4.346v1.27ZM39.2,74.263l1.233-.308v1.116l-1.233.308Zm33.447-.154,1.318-.347v1.232l-1.318.346Zm-8.755-.076,1.318-.347v1.231l-1.318.347Zm-15.979.153,1.232-.308v1.116l-1.232.269Zm160.9.732v-.923l.977.23v.923Zm-7.055-.077v-.923l.977.231v.923Zm-64.046-.115V73.686l1.1.308v1.039Zm14.747-.115V73.571l1.105.308v1.039ZM41.366,73.724l1.232-.269V74.57l-1.232.269Zm165.66.77V73.57l1.02.27v.885Zm-7.013-.076v-.885l.977.23v.885ZM75.534,73.339l1.318-.384v1.231l-1.318.384Zm-8.713-.076,1.318-.347v1.231l-1.318.347Zm-8.754-.077,1.318-.347V74.07l-1.318.347Zm77.178.885V73.031l1.105.308v1Zm-91.669-.847,1.19-.269v1.077l-1.19.308Zm161.708.847v-.885l.977.23V74.3ZM142.6,73.993V72.954l1.147.308V74.3Zm7.394-.039V72.916l1.105.308v1.039ZM12.975,73.339,35.968,65.49v.77L12.975,74.109Zm190.523.308v-.885l1.021.23v.885Zm-32.384-10v-1l27.072,10.2V73.8Zm-101.4,8.85,1.317-.384v1.231l-1.317.385Zm85.253.847V72.031l1.445.346v1.309Zm-22.185.077v-1.04l1.105.269v1.039Zm7.352-.077V72.3l1.147.308v1.039ZM61,72.416l1.318-.346V73.3L61,73.647Zm-8.754-.077,1.36-.346v1.231l-1.36.347Zm114.874.886v-1.27l1.445.308V73.57Zm-19.592.076V72.262l1.1.308v1ZM47.911,72.185l1.232-.269v1.116l-1.232.269Zm152.1.654v-.923l.977.231v.923Zm-62.3-.154V71.646l1.1.308v1.039Zm7.352-.038V71.608l1.105.269v1.039Zm-103.7-.886,1.232-.269v1.115l-1.232.27Zm22.523-.115,1.318-.385v1.232l-1.318.346Zm-8.712-.077,1.318-.346v1.231l-1.318.347Zm150.107.923v-.923l.977.231v.923Zm-42.372-.154v-1.27l1.4.308v1.309ZM12.975,71.724l22.992-7.85v.77l-22.992,7.85Zm30.6-.463,1.19-.269v1.077l-1.19.308Zm159.923.808v-.923l1.021.269V72.3Zm-60.9-.115V70.916l1.147.308v1.039Zm7.394-.039V70.877l1.105.308v1.039Zm-74.457-1,1.318-.347V71.8l-1.318.346Zm-8.713-.077,1.318-.347v1.232l-1.318.346ZM58.067,70.8l1.318-.384v1.231l-1.318.384Zm150.744.923V70.8l.977.269v.886Zm-171.78-.885,1.232-.308v1.116l-1.232.308Zm122.821.77V70.3l1.445.346v1.27Zm41.9.039v-.886l.977.231v.885ZM45.743,70.761l1.19-.308v1.116l-1.19.308Zm125.372-9.2v-1l27.072,10.2v.962ZM132.78,71.377v-1.04l1.105.308v1Zm7.352-.077V70.261l1.147.308v1.039Zm7.4-.039V70.223l1.1.308v1.039Zm59.5.039v-.885l1.02.23v.885Zm-7.013-.077v-.885l.977.231v.885ZM39.2,70.338l1.233-.308v1.116l-1.233.308Zm115.895.693V69.722l1.445.347v1.308ZM47.911,70.223l1.232-.27v1.116l-1.232.27Zm21.8-.154,1.317-.347v1.231l-1.317.347ZM61,69.992l1.318-.347v1.231L61,71.223Zm-8.754-.039,1.36-.385V70.8l-1.36.385Zm153.039.923v-.886l.977.231v.885Zm-67.574-.231V69.607l1.1.308v1.039ZM41.366,69.8,42.6,69.53v1.116l-1.232.269Zm-28.391.347L35.968,62.3v.77L12.975,70.877Zm139.481.384V69.492l1.105.308v1.039Zm51.042-.077v-.885l1.021.231v.923ZM72.644,69.3l1.318-.384v1.231l-1.318.384Zm-8.755-.076,1.318-.347v1.231l-1.318.347ZM43.575,69.3l1.19-.308v1.115l-1.19.309Zm165.236.808v-.886l.977.231v.923ZM55.177,69.145l1.318-.347V70.03l-1.318.347Zm80.068.847v-1.04l1.105.308V70.3Zm7.352-.077v-1l1.147.27v1.039Zm7.394-.039V68.837l1.105.308v1.039Zm15.258-.115V68.452l1.445.346v1.27ZM37.031,68.875l1.232-.308v1.116l-1.232.308Zm170,.847V68.8l1.02.23v.924Zm-7.013-.076v-.924l.977.231v.923ZM75.534,68.491l1.318-.346v1.232l-1.318.346Zm-8.713-.039,1.318-.346V69.3l-1.318.385Zm104.293-9v-.962l27.072,10.158v1ZM132.78,69.338V68.3l1.105.308v1.039Zm-74.713-.962,1.318-.346V69.26l-1.318.347Zm82.065.885V68.222l1.147.308v1.039Zm22.568-.076V67.875l1.445.346V69.53Zm-15.172.038V68.183l1.1.308V69.53Zm20.017-.076v-1.27l1.445.308v1.309ZM39.2,68.376l1.233-.308v1.115l-1.233.27Zm8.713-.116,1.232-.269v1.116l-1.232.269Zm-34.935.27,22.992-7.849v.77L12.975,69.3Zm147.217.269v-1.27l1.445.308v1.309Zm43.306.076v-.885l1.021.231v.885Zm-45.856-.154V67.452l1.445.308v1.308Zm-2.55-.115v-1.27l1.445.346v1.27Zm-17.383,0V67.568l1.1.308v1.039Zm7.352-.038V67.529l1.105.308v1.039Zm-75.35-.923,1.317-.347V68.53l-1.317.346Zm82.744.846V67.452l1.105.308V68.8Zm56.354.039v-.886l.977.231v.885Zm-156.566-1,1.36-.346v1.231l-1.36.346Zm149.511.923v-.885l.977.23v.886ZM43.575,67.336l1.19-.308v1.116l-1.19.308Zm163.451.77v-.885l1.02.231v.885Zm-71.781-.154V66.913l1.105.308V68.26Zm64.769.077v-.885l.977.23v.885ZM142.6,67.914V66.875l1.147.27v1.039Zm7.394-.077V66.8l1.105.308v1.039Zm-77.347-.961,1.318-.347V67.76l-1.318.346ZM63.889,66.8l1.318-.347v1.231l-1.318.347Zm-26.859.115,1.232-.308v1.116l-1.232.308Zm18.147-.154,1.318-.346v1.192l-1.318.384Zm150.107.923V66.8l.977.23v.886ZM45.743,66.836l1.19-.308v1.116l-1.19.269Zm-32.767.078,22.992-7.85v.77l-22.992,7.85Zm119.8.384V66.259l1.105.308v1.039Zm38.335-9.928v-.962l27.072,10.158v1ZM203.5,67.3v-.924l1.021.231v.923Zm-63.366-.077v-1l1.147.269v1.039Zm7.4-.039V66.144l1.1.308V67.49ZM39.2,66.374l1.233-.269v1.116L39.2,67.49Zm8.713-.076,1.232-.269v1.115l-1.232.27Zm27.624-.193,1.318-.346v1.193l-1.318.385Zm84.615.808V65.6l1.445.347V67.26Zm-93.328-.885,1.318-.347v1.231l-1.318.347Zm-8.754-.077,1.318-.346v1.231l-1.318.347Zm143.689.923v-.923l.977.231v.923Zm-160.39-1L42.6,65.6v1.077l-1.232.308Zm103.7.654V65.489l1.105.308v1.039Zm61.964,0V65.6l1.02.27v.885Zm-54.57-.077v-1l1.105.269v1.039Zm15.258-.193V64.951l1.445.346v1.309Zm-98-1,1.317-.347v1.193l-1.317.385Zm-26.137.115,1.19-.308v1.116l-1.19.308Zm111.56.731V64.8l1.444.346v1.309ZM61,65.182l1.318-.346v1.231L61,66.413Zm144.284.923V65.22l.977.23v.886Zm-39.907-.154v-1.27l1.445.347V66.3Zm-30.132-.038V64.874l1.105.308v1.039Zm7.352-.039V64.836l1.147.308v1Zm7.394-.077V64.759l1.105.308v1.039ZM12.975,65.336l22.992-7.85v.769L12.975,66.067Zm32.767-.5,1.19-.269v1.116l-1.19.269Zm157.756.847V64.8l1.021.23v.885Zm-40.629-.308V64.066l1.4.346v1.309Zm-98.98-.962,1.318-.346v1.193l-1.318.384Zm68.891.847V64.22l1.105.308v1.04Zm-77.6-.923,1.318-.347V65.22l-1.318.347Zm146.579.923v-.886l.977.231v.923ZM39.2,64.412l1.233-.269v1.116l-1.233.269Zm131.917-9.12v-.961L198.186,64.49v1ZM140.132,65.22V64.182l1.147.269v1.039Zm7.4-.077V64.1l1.1.308v1.039Zm52.486-.269V63.95l.977.231v.923Zm-39.694-.115v-1.27l1.445.347v1.27ZM41.366,63.912,42.6,63.6V64.72l-1.232.308Zm34.168-.23,1.318-.347v1.231l-1.318.346ZM66.821,63.6l1.318-.347V64.49l-1.318.346Zm70.888.923V63.489l1.1.308v1.039Zm7.352-.039V63.45l1.105.308V64.8Zm-86.995-.923,1.318-.347v1.193l-1.318.385Zm94.389.885V63.412l1.105.269V64.72Zm15.47-.193v-1.27l1.4.347V64.6Zm-10.114-.076V62.873l1.4.347v1.308Zm-114.237-.77,1.19-.308V64.22l-1.19.308Zm91.669.463v-1.04l1.105.308v1.04Zm7.352-.039V62.8l1.147.308v1.039Zm-72.885-1,1.317-.346V63.72l-1.317.346Zm80.279.923V62.719l1.105.308v1.039Zm15.385-.076V62.373l1.445.347v1.309ZM45.743,62.873l1.19-.269v1.115l-1.19.27Zm6.5-.154,1.36-.347v1.193l-1.36.384Zm103.018.846V62.3l1.445.308v1.308ZM132.78,63.22V62.18l1.105.309v1.039Zm-84.869-.847,1.232-.308v1.116l-1.232.308Zm92.221.808V62.142l1.147.308v1Zm30.982-9.966v-1l27.072,10.2v1Zm-8.245,9.85V61.8l1.4.346v1.27Zm-15.342.039V62.065l1.1.308v1.04ZM72.644,62.065l1.318-.346v1.192l-1.318.385Zm-8.755-.076,1.318-.347v1.231l-1.318.347Zm-8.712-.077,1.318-.346V62.8l-1.318.346ZM44.34,61.258l.425.154v1.424l-.425.115Zm115.979,1.23V61.18l1.445.347v1.308Zm-22.61,0v-1l1.1.269V62.8Zm14.747-.077V61.373l1.105.308v1ZM75.534,61.258l1.318-.347v1.231l-1.318.347Zm-8.713-.039,1.318-.347v1.193l-1.318.385Zm-8.754-.077,1.318-.347v1.232l-1.318.346Zm109.859.847V60.68l1.4.347v1.308Zm-32.682-.154V60.8l1.105.308v1.039ZM142.6,61.8V60.757l1.147.308V62.1Zm12.666-.5V59.987l1.445.347v1.309Zm-85.55-.885,1.317-.347V61.3l-1.317.347ZM61,60.372l1.318-.347v1.193L61,61.6ZM52.245,60.3l1.36-.347V61.18l-1.36.347Zm87.887.846V60.1l1.147.308v1Zm7.4-.076v-1.04l1.1.308v1.04Zm23.587-9.928v-1l27.072,10.2v1ZM162.869,60.8V59.487l1.4.346v1.309ZM36.35,58.14v-.653L44.765,60.6v.538Zm36.294,1.5,1.318-.347v1.231l-1.318.347Zm-8.755-.077,1.318-.346v1.231l-1.318.346Zm73.821.923V59.449l1.1.269v1.04Zm-82.533-.961,1.318-.347v1.193l-1.318.385Zm89.885.885v-1.04l1.105.309v1.039Zm7.394-.039V59.333l1.105.308v1Zm7.863-.193V58.91l1.445.347v1.27ZM135.245,59.8v-1.04l1.105.308V60.1Zm-59.71-.923,1.318-.347v1.193l-1.318.385Zm92.392.807V58.41l1.4.346v1.27ZM66.821,58.794l1.318-.346V59.68l-1.318.346Zm83.17.923V58.679l1.105.269v1.04Zm7.821-.115V58.294l1.4.347v1.309Zm-99.745-.885,1.318-.347V59.6l-1.318.347Zm107.31.384V57.794l1.445.346v1.309Zm-32.6.039V58.1l1.105.308v1.039Zm7.352-.039V58.064l1.147.308V59.41Zm15.131-.115v-1.27l1.445.308v1.309Zm-7.736.039v-1l1.1.269v1.04Zm23.587-9.967v-1l27.072,10.2v.961ZM61,57.948l1.318-.347v1.231L61,59.18Zm-8.754-.077,1.36-.346v1.231l-1.36.346Zm110.624.616v-1.27l1.4.347v1.27Zm-25.16-.039V57.409l1.1.308v1Zm7.352-.076V57.333l1.105.308v1.039Zm7.394-.039V57.294l1.105.308V58.64ZM72.644,57.217l1.318-.346V58.1l-1.318.347Zm-8.755-.038,1.318-.347v1.193l-1.318.385ZM55.177,57.1l1.318-.347v1.232l-1.318.346Zm80.068.654v-1l1.105.27v1.039Zm7.352-.039V56.678l1.147.308v1.039Zm7.394-.039V56.64l1.105.308v1Zm17.935-.269V56.1l1.4.347v1.309Zm-92.392-.962,1.318-.346v1.231l-1.318.347Zm82.278.847v-1.27l1.4.308v1.309Zm-90.991-.885,1.318-.385v1.231l-1.318.347Zm-8.754-.077,1.318-.347v1.193l-1.318.384Zm74.713.77V56.063l1.105.308v1.039Zm7.352-.039V56.024l1.147.308v1.039Zm7.4-.076v-1l1.1.27v1.039Zm23.587-10v-1l27.072,10.2v.962Zm-5.738,9.812v-1.27l1.445.347v1.27Zm-10.114-.077V55.409l1.445.347v1.308ZM69.712,55.6l1.317-.347v1.231l-1.317.347ZM61,55.562l1.318-.385v1.232L61,56.755Zm76.711.847V55.37l1.1.308v1.04Zm-85.465-.923,1.36-.347v1.193l-1.36.385Zm92.817.846V55.293l1.105.308V56.64Zm17.807-.115V54.908l1.4.347v1.308ZM72.644,54.832l1.318-.347v1.193l-1.318.385Zm62.6.923v-1.04l1.105.27v1.039Zm7.352-.077V54.639l1.147.308v1.039Zm-78.708-.923,1.318-.347V55.64l-1.318.346Zm96.431.847v-1.27l1.445.308v1.308Zm-10.328.038V54.6l1.105.308v1.039Zm-94.814-.923,1.318-.384v1.231l-1.318.347Zm102.635.308V53.716l1.4.346V55.37Zm-25.033.039v-1l1.105.269V55.37Zm7.352-.039V53.985l1.147.308v1.039Zm7.4-.038V53.946l1.1.27v1.039Zm-71.993-.923,1.318-.385v1.231l-1.318.347Zm-8.713-.077,1.318-.347v1.193l-1.318.384Zm-8.754-.076,1.318-.347v1.231l-1.318.347Zm113.047-9.043V43.9l27.072,10.2v.962Zm-5.738,9.659V53.215l1.445.347v1.308Zm-10.114-.116v-1.27l1.445.308v1.309Zm-17.553-.039V53.33l1.1.308v1.039Zm7.352-.076v-1l1.105.27V54.6Zm7.394-.039V53.215l1.105.308v1.039ZM69.712,53.215l1.317-.384v1.231l-1.317.346Zm-17.467-.154,1.36-.347v1.231l-1.36.346Zm110.624.846V52.638l1.4.308v1.308Zm-27.625-.192v-1.04l1.105.308v1Zm7.352-.077V52.6l1.147.308v1.039Zm7.394-.038v-1.04l1.105.308v1.04Zm10.328-.27V52.023l1.445.346v1.309Zm-87.675-.923,1.318-.347v1.232l-1.318.346Zm-8.755-.038,1.318-.385v1.231l-1.318.347Zm68.891.653v-1l1.105.269V53.33Zm7.352-.039V51.945l1.147.308v1.039Zm7.4-.038v-1.04l1.1.308v1Zm20.4-.116V51.522l1.4.347v1.308Zm-10.114-.115v-1.27l1.4.308v1.309Zm13.3-9.927v-.962l27.072,10.158v1ZM66.821,51.561l1.318-.347v1.231l-1.318.347Zm-8.754-.039,1.318-.385v1.231l-1.318.347Zm107.31.692v-1.27l1.445.347v1.27Zm-12.92,0V51.176l1.105.308v1.039Zm2.806-.076V50.829l1.445.347v1.309Zm-85.55-1.346,1.317-.347v1.193l-1.317.385Zm93.157.846V50.329l1.4.347v1.309Zm-27.625.039v-1.04l1.105.309v1.039ZM61,50.714l1.318-.347V51.6L61,51.945Zm81.6.885V50.56l1.147.308v1.039Zm7.394-.038v-1.04l1.105.308v1.04Zm-97.746-.886,1.36-.384v1.231l-1.36.347Zm80.535.347V49.983l1.105.308v1Zm7.352-.076V49.906l1.147.308v1.04Zm7.4-.039V49.867l1.1.308v1.039Zm-74.883-.885,1.318-.385v1.231l-1.318.347Zm-17.467-.154,1.318-.347v1.231l-1.318.347ZM171.114,40.71v-.962l27.072,10.158v1Zm-3.188,9.812v-1.27l1.4.347v1.27Zm-10.114-.076V49.136l1.4.347v1.308Zm-20.1-.154V49.252l1.1.308V50.6Zm7.352-.039V49.214l1.105.308v1Zm7.394-.077V49.136l1.105.308v1.039Zm-76.922-.961,1.318-.347V50.1l-1.318.346Zm-8.713-.039,1.318-.385v1.231l-1.318.346ZM58.067,49.1l1.318-.347v1.231l-1.318.346Zm107.31.846V48.636l1.445.347v1.309Zm-10.114-.115V48.56l1.445.308v1.308Zm-20.018-.193V48.6l1.105.308v1.039Zm7.352-.077v-1l1.147.269v1.039Zm20.272-.23v-1.27l1.4.308v1.309Zm-93.157-.962,1.317-.347v1.231l-1.317.347ZM61,48.328l1.318-.384v1.231L61,49.522Zm-8.754-.076,1.36-.347v1.231l-1.36.347Zm80.535.731V47.944l1.105.308v1Zm7.352-.076v-1.04l1.147.308v1.04Zm7.4-.039v-1.04l1.1.309v1.039Zm12.793-.116V47.444l1.445.347V49.1Zm10.795-10.12v-1l27.072,10.2v1ZM72.644,47.6l1.318-.347v1.231l-1.318.347Zm-8.755-.076,1.318-.347v1.231l-1.318.347Zm-8.712-.039,1.318-.385v1.231l-1.318.347Zm112.749.77V46.943l1.4.347V48.6Zm-30.217,0v-1.04l1.1.308v1.04Zm20.1-.116V46.867l1.4.308v1.308Zm-5.356,0V47.1l1.105.308v1.039ZM75.534,46.828l1.318-.385v1.232l-1.318.346Zm-8.713-.076,1.318-.347v1.231l-1.318.347Zm98.555.885v-1.27l1.445.347v1.269Zm-10.114-.077V46.251l1.445.346v1.309Zm-97.2-.885,1.318-.347v1.231l-1.318.347Zm84.53.885V46.52l1.147.269v1.04Zm7.394-.076v-1.04l1.105.308v1.04Zm-17.212-.539V45.9l1.105.308v1.039Zm7.352-.076v-1l1.147.269v1.039Zm-70.42-.886,1.317-.384v1.231l-1.317.347Zm77.815.847V45.789l1.1.308v1.039ZM61,45.9l1.318-.347v1.231L61,47.136Zm99.32.538v-1.27l1.445.308v1.309Zm10.795-9.888v-1l27.072,10.2v1Zm-33.4,9.658V45.173l1.1.309V46.52Zm7.352-.039V45.135l1.105.308v1.039Zm7.394-.076v-1l1.105.269V46.4Zm-79.812-.923,1.318-.347v1.231l-1.318.346Zm-8.755-.039,1.318-.385v1.231l-1.318.346Zm104.037.807V44.673l1.4.346v1.27ZM55.177,45.058l1.318-.346v1.231l-1.318.346Zm102.635.808V44.557l1.4.347v1.309Zm-22.568-.308V44.519l1.105.308v1.039Zm7.352-.039V44.481l1.147.308v1Zm22.78-.154V44.058l1.445.346v1.309ZM75.534,44.4l1.318-.347v1.231l-1.318.347Zm-8.713-.077,1.318-.347v1.231l-1.318.347Zm-8.754-.039,1.318-.384v1.231l-1.318.347Zm74.713.616V43.865l1.105.308v1.039Zm7.352-.076v-1l1.147.269v1.04Zm22.738-.077V43.48l1.4.308V45.1Zm-15.342.039V43.75l1.1.308V45.1ZM69.712,43.557l1.317-.347v1.231l-1.317.347ZM61,43.481l1.318-.347v1.231L61,44.712Zm-8.754-.039,1.36-.385v1.231l-1.36.347Zm108.075.731V42.864l1.445.347v1.309Zm-22.61,0V43.134l1.1.308v1.039Zm7.352-.039V43.1l1.105.308v1.039Zm22.865-.462V42.364l1.4.347v1.309Zm-95.282-.885,1.318-.385v1.232l-1.318.346Zm-8.755-.077,1.318-.346V43.6l-1.318.346Zm93.923.847v-1.27l1.4.308V43.9ZM55.177,42.634l1.318-.347v1.231l-1.318.347Zm80.068.885V42.48l1.105.308v1.039Zm7.352-.039V42.441l1.147.308v1.039Zm22.78-.423v-1.27l1.445.308V43.4Zm-10.114-.076V41.672l1.445.347v1.27Zm-79.728-1,1.318-.347v1.231l-1.318.347Zm57.245.885V41.826l1.105.308v1.039Zm-65.958-.923,1.318-.384v1.231l-1.318.347Zm73.31.886V41.787l1.147.269V43.1Zm-82.065-.962,1.318-.347v1.231l-1.318.347Zm104.8.616V41.171l1.4.347v1.308ZM52.245,41.018l1.36-.347V41.9l-1.36.346Zm92.86.923V29.667l.509-.308V42.133Zm-9.86-.462V40.441l1.105.308v1.039Zm32.682-.115v-1.27l1.4.347v1.27Zm-10.114-.077V39.979l1.4.346v1.309Zm-85.168-.923,1.318-.346v1.231l-1.318.346Zm-8.755-.076,1.318-.347v1.231l-1.318.347Zm-8.712-.039,1.318-.384v1.231l-1.318.384Zm77.6.577V39.786l1.105.308v1.039Zm22.483-.154V39.4l1.445.308v1.309ZM75.534,39.594l1.318-.384v1.231l-1.318.384Zm-8.713-.076,1.318-.347V40.4l-1.318.347Zm-8.754-.077,1.318-.346v1.231l-1.318.346Zm104.8.731V38.9l1.4.308v1.308ZM69.712,38.748l1.317-.385v1.231l-1.317.385Zm90.607.846V38.286l1.445.346V39.94ZM61,38.67l1.318-.346v1.231L61,39.9Zm-8.754-.076,1.36-.347v1.231l-1.36.347Zm105.567.384v-1.27l1.4.308v1.309ZM72.644,37.94l1.318-.347v1.231l-1.318.347ZM63.889,37.9l1.318-.384v1.231l-1.318.384Zm101.488.577v-1.27l1.445.309v1.308ZM155.263,38.4V37.093l1.445.347v1.27ZM75.534,37.17l1.318-.347v1.231l-1.318.346Zm-8.713-.077,1.318-.346v1.231l-1.318.346Zm-8.754-.038,1.318-.385V37.9l-1.318.385Zm104.8.846V36.592l1.4.347v1.309Zm-2.55-.616v-1.27l1.445.308v1.309Zm-90.607-.962,1.317-.346v1.231l-1.317.346Zm-17.467-.115,1.36-.347v1.193l-1.36.384Zm115.681.577v-1.27l1.4.347v1.27Zm-10.114-.076V35.4l1.4.347v1.27ZM63.889,35.477l1.318-.347v1.231l-1.318.347ZM55.177,35.4l1.318-.347v1.232l-1.318.346Zm110.2.808V34.9l1.445.347v1.309Zm-10.114-.115v-1.27l1.445.308v1.308ZM75.534,34.745l1.318-.346v1.231l-1.318.347Zm87.335.847v-1.27l1.4.308v1.309Zm-96.048-.885,1.318-.347v1.193l-1.318.385Zm-8.754-.077,1.318-.347v1.232l-1.318.346Zm102.253.385V33.707l1.445.346v1.308ZM69.712,33.9l1.317-.347v1.231l-1.317.347ZM61,33.861l1.318-.347v1.193L61,35.092Zm-8.754-.076,1.36-.347v1.231l-1.36.347Zm20.4-.654,1.318-.347v1.231l-1.318.346Zm-8.755-.077,1.318-.347v1.232l-1.318.346Zm91.373.77V32.514l1.445.346v1.27Zm7.607-.5V32.014l1.4.346v1.309ZM75.534,32.36l1.318-.347v1.193l-1.318.385Zm-8.713-.077,1.318-.347v1.232l-1.318.346Zm-8.754-.076,1.318-.347v1.231l-1.318.347Zm102.253.5v-1.27l1.445.309v1.308ZM69.712,31.514l1.317-.347V32.36l-1.317.384ZM61,31.437l1.318-.347v1.231L61,32.668Zm106.927.769V30.937l1.4.308v1.308Zm-10.114-.076V30.821l1.4.346v1.27Zm7.564-.5V30.321l1.445.346v1.309Zm-92.732-.923,1.318-.346v1.231l-1.318.346Zm-8.755-.038,1.318-.347v1.192l-1.318.385Zm91.373.846v-1.27l1.445.308V31.86Zm7.607-.5v-1.27l1.4.308V31.36ZM75.534,29.936l1.318-.347v1.232l-1.318.346Zm-8.713-.076,1.318-.347v1.231l-1.318.346Zm93.5.577V29.128l1.445.346v1.309Zm7.607-.5V28.627l1.4.347v1.309Zm-2.55-.616V28.05l1.445.308v1.309Zm-10.114-.076V27.935l1.445.347v1.27ZM72.644,28.32l1.318-.347v1.192l-1.318.385Zm72.375.076,9.308-6.656.042.616-9.435,6.7Zm-69.485-.885,1.318-.347V28.4l-1.318.347Zm84.785.616v-1.27l1.445.308v1.308Zm7.607-.5v-1.27l1.4.308v1.309Zm-10.114-.077V26.242l1.4.347v1.269Zm7.564-.5V25.742l1.445.347V27.4Zm-10.114-.116V25.627l1.445.346v1.309Zm7.607-.5v-1.27l1.4.308V26.78Zm-2.55-.578V24.549l1.445.346V26.2Zm-2.507-.616v-1.27l1.4.308v1.309Zm7.564-.5v-1.27l1.445.308v1.309Zm-2.507-.577V22.856l1.4.346v1.27Zm-2.55-.616v-1.27l1.445.308V23.9Zm-2.507-.577V21.663l1.4.347v1.27Zm-2.55-.616V21.047l1.445.346V22.7ZM108.513,2.424,79.019,12.967v-.885l29.494-10.5,21.335,10.5v.885Zm0-1.539L80.634,10.85V9.966L106.962.554h2.674L128.7,9.966v.885Z" transform="translate(-1.544 -0.554)" fill="#444344" opacity="0.55"/>
</svg>
