<svg id="information--filled" xmlns="http://www.w3.org/2000/svg" width="16" height="16" viewBox="0 0 16 16">
  <path id="Path_24982" data-name="Path 24982" d="M9.17,2a7.17,7.17,0,1,0,7.17,7.17A7.17,7.17,0,0,0,9.17,2Zm0,2.561a.768.768,0,1,1-.768.768A.768.768,0,0,1,9.17,4.561Zm2.049,8.771h-4.1V12.179H8.594V8.722h-.96V7.57H9.746v4.609h1.472Z" transform="translate(-0.976 -0.976)" fill="#48f"/>
  <path id="inner-path" d="M14.049,7a.768.768,0,1,1-.768.768A.768.768,0,0,1,14.049,7ZM16.1,15.771H12V14.618h1.472V11.161h-.96V10.009h2.113v4.609H16.1Z" transform="translate(-5.854 -3.415)" fill="none"/>
  <rect id="_Transparent_Rectangle_" data-name="&lt;Transparent Rectangle&gt;" width="16" height="16" fill="none"/>
</svg>
